<svg width="41.000000" height="41.000000" viewBox="0 0 41 41" fill="none" xmlns="http://www.w3.org/2000/svg" xmlns:xlink="http://www.w3.org/1999/xlink">
	<desc>
			Created with Pixso.
	</desc>
	<defs>
		<clipPath id="clip2001_714">
			<rect id="Icons/Icon" width="25.000000" height="24.000000" transform="translate(8.000000 8.500000)" fill="white" fill-opacity="0"/>
		</clipPath>
		<linearGradient id="paint_linear_2001_713_0" x1="7.576714" y1="39.253101" x2="10.294704" y2="6.285525" gradientUnits="userSpaceOnUse">
			<stop stop-color="#FFFFFF"/>
			<stop offset="1.000000" stop-color="#0B0B0B"/>
		</linearGradient>
		<linearGradient id="paint_linear_2001_713_1" x1="34.166683" y1="4.000003" x2="25.666677" y2="40.500004" gradientUnits="userSpaceOnUse">
			<stop stop-color="#FFFFFF" stop-opacity="0.701961"/>
			<stop offset="1.000000" stop-color="#FFFFFF" stop-opacity="0.000000"/>
		</linearGradient>
	</defs>
	<rect id="Icon" rx="20.000000" width="40.000000" height="40.000000" transform="translate(0.500000 0.500000)" fill="url(#paint_linear_2001_713_0)" fill-opacity="0.100000"/>
	<rect id="Icons/Icon" width="25.000000" height="24.000000" transform="translate(8.000000 8.500000)" fill="#FFFFFF" fill-opacity="0"/>
	<g clip-path="url(#clip2001_714)">
		<path id="Vector" d="M21.2 8.55322C21.1 8.604 21 13.7939 21 20.0859C21 30.1265 21.0667 31.5 21.5 31.5C21.9333 31.5 22 30.1094 22 20.0688C22 13.7769 21.8666 8.58691 21.7 8.53613C21.5667 8.48535 21.3333 8.48535 21.2 8.55322Z" fill="#FFFFFF" fill-opacity="1.000000" fill-rule="nonzero"/>
		<path id="Vector" d="M13.2883 13.8789C13.1993 14.0942 12.9142 16.0337 12.6647 18.2217C12.4153 20.3931 12.1658 22.2002 12.1302 22.2329C12.0946 22.2661 12.0055 21.6362 11.9343 20.8408C11.7739 19.1167 11.6135 18.6362 11.1503 18.6362C10.6336 18.6362 10.4376 18.9844 10.2059 20.3931L9.99213 21.7026L9.79614 20.957C9.67145 20.4927 9.49329 20.1943 9.2973 20.1611C8.9231 20.0947 8.90527 20.5259 9.22601 21.686C9.68927 23.377 10.6336 22.9956 10.8652 21.0396C10.9365 20.4263 11.0078 19.9624 11.0434 19.9956C11.079 20.0283 11.1859 20.7412 11.2928 21.603C11.5066 23.2441 11.7026 23.7749 12.0946 23.7749C12.6113 23.7749 12.7895 23.145 13.2527 19.2661C13.8407 14.5088 13.8229 14.4922 14.2505 22.5317C14.4108 25.3657 14.5712 27.8027 14.6246 27.9683C14.6781 28.1177 14.8741 28.333 15.0522 28.416C15.8006 28.7808 15.9609 28.1343 16.4064 22.9458C16.5489 21.3213 16.6915 21.5205 17.0121 23.8076C17.2438 25.3496 17.511 25.7969 18.0455 25.4819C18.4375 25.2666 18.5623 24.8521 18.8117 23.062C18.9899 21.7192 19.0433 21.6196 19.4175 21.6196C19.9342 21.6196 20.1836 21.3047 19.8451 21.106C19.7026 21.0229 19.3284 20.957 19.0255 20.957C18.3663 20.957 18.4019 20.9072 18.0812 22.9458C17.9743 23.6255 17.8674 24.189 17.8317 24.2222C17.8139 24.2554 17.6536 23.4434 17.511 22.4487C17.226 20.6421 17.0121 20.1279 16.5489 20.1279C16.1035 20.1279 15.9253 20.8076 15.6046 23.8242L15.2839 26.8413L15.177 25.4321C15.1057 24.6533 14.9276 21.7856 14.7672 19.0508C14.6068 16.3154 14.4108 13.9619 14.3217 13.7959C14.0723 13.3652 13.4665 13.415 13.2883 13.8789Z" fill="#FFFFFF" fill-opacity="1.000000" fill-rule="nonzero"/>
		<path id="Vector" d="M25.61 20.1323C25.2108 20.4829 24.8116 20.7783 24.7075 20.7783C24.6207 20.7783 24.2562 20.6123 23.9265 20.3906C23.2149 19.9478 22 19.9478 22 20.4092C22 20.5938 22.2083 20.7046 22.6769 20.7412C23.0587 20.7783 23.562 20.9629 23.7877 21.166C24.3604 21.6455 24.8637 21.6089 25.5753 21.0552C25.905 20.8154 26.3389 20.4644 26.5472 20.2983C26.929 20.0215 26.9637 20.0215 27.5018 20.5015C27.9877 20.9258 28.1439 20.9814 28.8381 20.8706C29.272 20.8154 30.4001 20.7783 31.3373 20.7783C32.9167 20.8154 33.0555 20.7783 32.9861 20.4644C32.9341 20.188 32.6911 20.1138 31.2332 19.9849C29.8101 19.874 29.463 19.9111 29.1158 20.1509C28.6993 20.4463 28.6472 20.4277 28.0224 19.9663C27.1025 19.3018 26.4778 19.3389 25.61 20.1323Z" fill="#FFFFFF" fill-opacity="1.000000" fill-rule="nonzero"/>
	</g>
	<rect id="Icon" rx="20.000000" width="40.000000" height="40.000000" transform="translate(0.500000 0.500000)" stroke="url(#paint_linear_2001_713_1)" stroke-opacity="0.500000" stroke-width="1.000000"/>
</svg>
