<svg width="41.000000" height="41.000000" viewBox="0 0 41 41" fill="none" xmlns="http://www.w3.org/2000/svg" xmlns:xlink="http://www.w3.org/1999/xlink">
	<desc>
			Created with Pixso.
	</desc>
	<defs>
		<clipPath id="clip2001_718">
			<rect id="Icons/Icon" width="14.000000" height="24.000000" transform="translate(13.500000 8.500000)" fill="white" fill-opacity="0"/>
		</clipPath>
		<linearGradient id="paint_linear_2001_717_0" x1="7.576714" y1="39.253101" x2="10.294704" y2="6.285525" gradientUnits="userSpaceOnUse">
			<stop stop-color="#FFFFFF"/>
			<stop offset="1.000000" stop-color="#0B0B0B"/>
		</linearGradient>
		<linearGradient id="paint_linear_2001_717_1" x1="34.166683" y1="4.000003" x2="25.666677" y2="40.500004" gradientUnits="userSpaceOnUse">
			<stop stop-color="#FFFFFF" stop-opacity="0.701961"/>
			<stop offset="1.000000" stop-color="#FFFFFF" stop-opacity="0.000000"/>
		</linearGradient>
	</defs>
	<rect id="Icon" rx="20.000000" width="40.000000" height="40.000000" transform="translate(0.500000 0.500000)" fill="url(#paint_linear_2001_717_0)" fill-opacity="0.100000"/>
	<rect id="Icons/Icon" width="14.000000" height="24.000000" transform="translate(13.500000 8.500000)" fill="#FFFFFF" fill-opacity="0"/>
	<g clip-path="url(#clip2001_718)">
		<path id="Vector" d="M21.341 8.84424C21.341 9.57568 20.9561 10.063 20.2197 10.2891L19.5 10.5156L20.2197 10.707C20.9561 10.916 21.341 11.4033 21.341 12.1519C21.341 12.3433 21.4247 12.5 21.5084 12.5C21.6088 12.5 21.6757 12.3433 21.6757 12.1519C21.6757 11.4209 22.0607 10.916 22.7803 10.7246L23.5 10.5156L22.7134 10.2544C21.9937 9.99316 21.91 9.92383 21.7761 9.22705C21.6088 8.47852 21.341 8.23486 21.341 8.84424Z" fill="#FFFFFF" fill-opacity="1.000000" fill-rule="nonzero"/>
		<path id="Vector" d="M14.7179 14.0581C14.5761 14.5054 14.3989 14.7021 13.9382 14.8452C13.3003 15.0601 13.3535 15.1494 14.1331 15.3462C14.4698 15.4175 14.6293 15.5967 14.7179 15.9902C14.8596 16.6699 15.09 16.6699 15.2318 15.9902C15.3026 15.5605 15.4444 15.4175 15.8696 15.3462C16.543 15.2031 16.7379 14.9165 16.1531 14.9165C15.6039 14.9165 15.1609 14.4873 15.1609 13.915C15.1609 13.3066 14.9128 13.3779 14.7179 14.0581Z" fill="#FFFFFF" fill-opacity="1.000000" fill-rule="nonzero"/>
		<path id="Vector" d="M19.2203 15.6128C18.5342 15.8135 17.6975 16.7666 17.5637 17.4688C17.5135 17.77 17.48 19.5762 17.5135 21.4829C17.5637 24.6602 17.5972 24.978 17.9151 25.396C18.5342 26.2324 19.0529 26.5 19.99 26.5C20.9773 26.5 21.5128 26.1987 22.1319 25.2959C22.4833 24.7607 22.5 24.6104 22.5 21.0312C22.5 17.4521 22.4833 17.3018 22.1319 16.7666C21.3956 15.6963 20.3246 15.2783 19.2203 15.6128Z" fill="#FFFFFF" fill-opacity="1.000000" fill-rule="nonzero"/>
		<path id="Vector" d="M25.8758 16.0249C25.7803 16.3623 25.5319 16.625 25.1115 16.7749L24.5 17.0376L25.035 17.1689C25.3981 17.2437 25.6656 17.4873 25.8376 17.8999L26.086 18.5L26.2388 17.9561C26.3153 17.6187 26.5637 17.3564 26.9268 17.2061L27.5 16.9624L26.9459 16.7373C26.621 16.6064 26.2962 16.2876 26.2006 16.0063L26.0096 15.5L25.8758 16.0249Z" fill="#FFFFFF" fill-opacity="1.000000" fill-rule="nonzero"/>
		<path id="Vector" d="M14.6171 22.6279C14.4283 22.793 14.4798 24.7246 14.6857 25.6489C15.0803 27.4316 16.6245 28.8682 18.5977 29.2808L19.6443 29.4956L19.6443 30.7832L19.6443 32.0708L17.8084 32.1201C16.676 32.1533 15.9725 32.2358 16.0068 32.335C16.024 32.4341 17.4996 32.5 19.9874 32.5C22.4753 32.5 23.9509 32.4341 23.9852 32.335C24.0024 32.2358 23.2989 32.1533 22.1837 32.1201L20.3306 32.0708L20.3306 30.7666C20.3306 29.4624 20.3306 29.4458 20.811 29.3633C23.2817 28.8682 24.397 28.0425 25.1519 26.144C25.5637 25.1206 25.6324 22.5122 25.2377 22.5122C25.0833 22.5122 24.9803 22.9087 24.9117 24.0312C24.8259 25.2529 24.7058 25.7314 24.3284 26.458C23.4876 28.0264 22.0464 28.8184 19.9874 28.8184C18.0658 28.8184 16.6074 28.0757 15.7495 26.689C15.3892 26.0781 15.2862 25.6821 15.2347 24.5923C15.1318 22.6606 15.0117 22.248 14.6171 22.6279Z" fill="#FFFFFF" fill-opacity="1.000000" fill-rule="nonzero"/>
	</g>
	<rect id="Icon" rx="20.000000" width="40.000000" height="40.000000" transform="translate(0.500000 0.500000)" stroke="url(#paint_linear_2001_717_1)" stroke-opacity="0.500000" stroke-width="1.000000"/>
</svg>
