<svg width="74.000000" height="14.000000" viewBox="0 0 74 14" fill="none" xmlns="http://www.w3.org/2000/svg" xmlns:xlink="http://www.w3.org/1999/xlink">
	<desc>
			Created with Pixso.
	</desc>
	<defs>
		<clipPath id="clip2001_723">
			<rect id="logo-white 1" width="74.000000" height="14.000000" fill="white" fill-opacity="0"/>
		</clipPath>
	</defs>
	<rect id="logo-white 1" width="74.000000" height="14.000000" fill="#FFFFFF" fill-opacity="0"/>
	<g clip-path="url(#clip2001_723)">
		<path id="Vector" d="M18.0069 2.00049L25.5583 2.00049L25.5583 3.31104L22.5895 3.31104L22.5895 10.6782L20.956 10.6782L20.956 3.31104L18 3.31104L18 2L18.0064 2L18.0069 2.00049ZM25.236 4.39453L26.6319 4.39453L26.6319 5.60742L26.658 5.60742C26.7043 5.43604 26.7896 5.27051 26.9149 5.11084C27.1826 4.76904 27.5449 4.50439 27.9618 4.3457C28.1735 4.26611 28.399 4.22461 28.6267 4.22314C28.7972 4.22314 28.923 4.229 28.989 4.23584C29.0546 4.2417 29.1201 4.25391 29.1926 4.25977L29.1926 5.59473C29.0856 5.57715 28.9781 5.56299 28.8702 5.55176C28.7631 5.54004 28.6552 5.53369 28.5474 5.53369C28.2969 5.53369 28.0604 5.58252 27.8365 5.67529C27.6128 5.7666 27.4215 5.90723 27.2574 6.08545C27.0823 6.28418 26.9482 6.5127 26.8621 6.75879C26.7635 7.02832 26.7172 7.33398 26.7172 7.68359L26.7172 10.6719L25.2296 10.6719L25.2296 4.39453L25.236 4.39453ZM36.0332 10.6787L34.5717 10.6787L34.5717 9.80273L34.545 9.80273C34.3607 10.1216 34.0911 10.373 33.7288 10.5625C33.3665 10.7524 32.9978 10.8501 32.6227 10.8501C31.734 10.8501 31.0883 10.6484 30.694 10.2378C30.2986 9.82764 30.101 9.20898 30.101 8.38184L30.101 4.39502L31.5891 4.39502L31.5891 8.24707C31.5891 8.79883 31.701 9.19092 31.9317 9.41748C32.1555 9.64355 32.4778 9.76025 32.8859 9.76025C33.2019 9.76025 33.4587 9.71729 33.6691 9.625C33.8801 9.5332 34.0511 9.41748 34.1764 9.26367C34.308 9.11719 34.4001 8.93359 34.4598 8.7251C34.5184 8.5166 34.545 8.29004 34.545 8.04541L34.545 4.40088L36.0332 4.40088L36.0332 10.6787ZM38.5677 8.66406C38.6141 9.06738 38.7782 9.3501 39.0616 9.51514C39.351 9.6748 39.6935 9.76025 40.0953 9.76025C40.2338 9.76025 40.3915 9.74756 40.5695 9.72949C40.7469 9.71094 40.9179 9.66797 41.0698 9.61328C41.2275 9.55811 41.3522 9.47217 41.4576 9.3623C41.5568 9.25146 41.6025 9.11084 41.5962 8.93359C41.5953 8.85107 41.5761 8.76953 41.5399 8.69482C41.5036 8.61963 41.4511 8.55273 41.3857 8.49854C41.2536 8.38232 41.0895 8.29688 40.8849 8.22314C40.657 8.14844 40.4237 8.08887 40.1869 8.04541C39.9237 7.99658 39.6605 7.94092 39.3909 7.88574C39.1193 7.83057 38.8511 7.76074 38.5875 7.67773C38.3401 7.60254 38.1069 7.49121 37.8964 7.34717C37.6912 7.21143 37.5239 7.03076 37.4089 6.82031C37.2842 6.60596 37.2245 6.34277 37.2245 6.02441C37.2245 5.68115 37.3167 5.39941 37.4947 5.1665C37.6741 4.93555 37.9059 4.74512 38.1729 4.60938C38.4599 4.46582 38.7684 4.36475 39.0878 4.30908C39.4234 4.25439 39.7463 4.22363 40.0489 4.22363C40.3979 4.22363 40.7336 4.26025 41.05 4.32812C41.3564 4.39014 41.6485 4.50391 41.9121 4.66455C42.1689 4.81787 42.3794 5.01953 42.551 5.26465C42.722 5.50977 42.8275 5.80957 42.8733 6.15869L41.3196 6.15869C41.2472 5.82861 41.0889 5.60205 40.8326 5.49121C40.5759 5.37549 40.2796 5.31982 39.9503 5.31982C39.8448 5.31982 39.7197 5.32617 39.5753 5.34473C39.4361 5.3623 39.2992 5.39307 39.1666 5.43652C39.0454 5.47852 38.9354 5.54541 38.8442 5.63232C38.8 5.67725 38.7656 5.73047 38.743 5.78809C38.7205 5.84619 38.7101 5.90771 38.7126 5.96924C38.7126 6.14062 38.7782 6.27539 38.9034 6.37939C39.0286 6.4834 39.1932 6.56934 39.3973 6.64258C39.6014 6.71045 39.832 6.77148 40.0953 6.82031C40.3585 6.86914 40.6281 6.92432 40.9052 6.97998C41.1747 7.03467 41.4379 7.1084 41.7017 7.1875C41.9648 7.26758 42.195 7.37793 42.3997 7.51855C42.6037 7.65967 42.7683 7.83105 42.893 8.03955C43.0182 8.24707 43.0843 8.51074 43.0843 8.81689C43.0843 9.19043 42.9921 9.50293 42.8073 9.7666C42.6234 10.0239 42.3863 10.2378 42.0965 10.397C41.793 10.5625 41.4643 10.6826 41.1219 10.7524C40.7737 10.8247 40.4183 10.8618 40.0617 10.8623C39.6624 10.8667 39.2642 10.8213 38.8773 10.7275C38.515 10.6357 38.199 10.501 37.9359 10.3237C37.6757 10.145 37.4618 9.9126 37.3103 9.64355C37.159 9.37451 37.0796 9.04932 37.0668 8.67627L38.5677 8.67627L38.5677 8.66406ZM43.4791 4.39551L44.6049 4.39551L44.6049 2.50879L46.093 2.50879L46.093 4.39551L47.4357 4.39551L47.4357 5.42969L46.0936 5.42969L46.0936 8.78662C46.0936 8.93311 46.0999 9.05615 46.1133 9.16602C46.126 9.27051 46.1591 9.3623 46.2054 9.43555C46.2558 9.51221 46.3323 9.5708 46.4223 9.60107C46.5214 9.6377 46.6461 9.65625 46.8176 9.65625C46.9226 9.65625 47.0281 9.65625 47.1335 9.6499C47.2391 9.64355 47.344 9.63184 47.4495 9.60693L47.4495 10.6787C47.2849 10.6973 47.1202 10.7095 46.9689 10.7275C46.8094 10.7451 46.6489 10.7534 46.4883 10.7524C46.0936 10.7524 45.7776 10.7153 45.54 10.6484C45.3034 10.5806 45.1121 10.4766 44.9805 10.3423C44.842 10.2075 44.7567 10.042 44.704 9.83936C44.6527 9.61182 44.6241 9.38037 44.6188 9.14795L44.6188 5.44141L43.4929 5.44141L43.4929 4.39404L43.4796 4.39404L43.4791 4.39551ZM48.489 4.39551L49.8983 4.39551L49.8983 5.24609L49.9249 5.24609C50.1348 4.87891 50.4247 4.62158 50.7998 4.46289C51.1832 4.30127 51.5987 4.21973 52.0183 4.22363C52.5511 4.22363 53.012 4.30908 53.4073 4.48682C53.8021 4.6582 54.1313 4.89746 54.3946 5.20312C54.6578 5.50977 54.8491 5.86475 54.9807 6.26953C55.1147 6.69043 55.1814 7.12793 55.1783 7.56738C55.1783 7.98975 55.1192 8.3999 55.0004 8.79248C54.8912 9.17139 54.7106 9.52783 54.467 9.8457C54.2277 10.1519 53.9168 10.4014 53.5586 10.5747C53.1899 10.7583 52.7621 10.8501 52.2618 10.8501C52.0431 10.8501 51.8248 10.8315 51.6096 10.7944C51.395 10.7578 51.1853 10.6987 50.9847 10.6177C50.7853 10.5386 50.5989 10.4336 50.4311 10.3047C50.2654 10.1797 50.1211 10.0312 50.0032 9.86426L49.9766 9.86426L49.9766 13L48.489 13L48.489 4.39453L48.489 4.39551ZM53.6902 7.54297C53.6905 7.26367 53.6507 6.98535 53.572 6.71631C53.499 6.46143 53.3784 6.2207 53.216 6.00586C53.0619 5.80176 52.8619 5.63232 52.6305 5.50977C52.3818 5.38232 52.1032 5.31689 51.8206 5.31982C51.1951 5.31982 50.7209 5.52148 50.405 5.92627C50.089 6.33057 49.9308 6.86963 49.9308 7.54297C49.9308 7.86133 49.9707 8.15527 50.056 8.4248C50.1412 8.69434 50.2601 8.92725 50.4311 9.12305C50.5963 9.31934 50.7934 9.47217 51.0241 9.58203C51.2543 9.69873 51.5244 9.75391 51.827 9.75391C52.1696 9.75391 52.4525 9.68652 52.6896 9.55811C52.9193 9.43311 53.1169 9.26172 53.2688 9.05615C53.4201 8.84766 53.5325 8.61475 53.598 8.35156C53.6586 8.08594 53.6895 7.81494 53.6902 7.54297ZM56.317 2.00049L57.8051 2.00049L57.8051 3.31152L56.317 3.31152L56.317 2.00049ZM56.317 4.39502L57.8051 4.39502L57.8051 10.6787L56.317 10.6787L56.317 4.39502ZM59.1349 2.00049L60.623 2.00049L60.623 10.6787L59.1349 10.6787L59.1349 2.00049ZM65.1854 10.8501C64.6451 10.8501 64.1646 10.7642 63.7437 10.5996C63.3401 10.4429 62.9749 10.209 62.6706 9.91309C62.3748 9.61133 62.1481 9.25488 62.0051 8.86572C61.8485 8.43652 61.7707 7.98486 61.775 7.53076C61.775 7.05273 61.8538 6.6123 62.0051 6.20801C62.1483 5.81934 62.3748 5.46289 62.6706 5.16113C62.9599 4.8667 63.3222 4.64014 63.7437 4.47461C64.1646 4.30908 64.6451 4.22363 65.1854 4.22363C65.7252 4.22363 66.2057 4.30908 66.6272 4.47461C67.0486 4.64014 67.404 4.87354 67.7002 5.16113C67.996 5.4624 68.2224 5.81885 68.3652 6.20801C68.5165 6.61182 68.5953 7.05273 68.5953 7.53076C68.5953 8.01514 68.5165 8.46143 68.3652 8.86572C68.2225 9.25488 67.9961 9.61133 67.7002 9.91309C67.4104 10.2075 67.0486 10.4341 66.6272 10.5996C66.2057 10.7642 65.7252 10.8501 65.1854 10.8501ZM65.1854 9.75391C65.5146 9.75391 65.804 9.68652 66.0475 9.55811C66.2848 9.43311 66.4896 9.25928 66.6469 9.04932C66.8046 8.8418 66.9165 8.60254 66.9958 8.33887C67.0684 8.07568 67.1077 7.80615 67.1077 7.53076C67.1077 7.26123 67.0684 6.99805 66.9958 6.72852C66.928 6.47314 66.8096 6.23193 66.6469 6.01807C66.4893 5.81055 66.2844 5.63867 66.0475 5.51611C65.804 5.3877 65.5146 5.31982 65.1854 5.31982C64.8561 5.31982 64.5663 5.3877 64.3228 5.51611C64.0874 5.64062 63.8831 5.81201 63.7239 6.01807C63.5635 6.2334 63.4453 6.47363 63.3749 6.72852C63.302 6.99023 63.2643 7.25977 63.2625 7.53076C63.2625 7.80615 63.3025 8.07568 63.3749 8.33887C63.4474 8.60254 63.5657 8.8418 63.7239 9.04932C63.8817 9.25781 64.0793 9.4292 64.3228 9.55811C64.5663 9.69287 64.8561 9.75391 65.1854 9.75391ZM69.0301 4.39551L70.1559 4.39551L70.1559 2.50879L71.644 2.50879L71.644 4.39551L72.9867 4.39551L72.9867 5.42969L71.644 5.42969L71.644 8.78662C71.644 8.93311 71.6504 9.05615 71.6632 9.16602C71.6765 9.27051 71.7095 9.3623 71.7559 9.43555C71.8062 9.51221 71.8827 9.5708 71.9728 9.60107C72.0718 9.6377 72.1965 9.65625 72.3681 9.65625C72.4731 9.65625 72.5786 9.65625 72.684 9.6499C72.7896 9.64355 72.8945 9.63184 73 9.60693L73 10.6787C72.8354 10.6973 72.6707 10.7095 72.5194 10.7275C72.3599 10.7451 72.1994 10.7534 72.0388 10.7524C71.644 10.7524 71.3275 10.7153 71.0905 10.6484C70.8539 10.5806 70.6626 10.4766 70.531 10.3423C70.393 10.2075 70.3073 10.042 70.2545 9.83936C70.2032 9.61182 70.1747 9.38037 70.1693 9.14795L70.1693 5.44141L69.0434 5.44141L69.0434 4.39404L69.0301 4.39404L69.0301 4.39551Z" fill="#0B0B0B" fill-opacity="1.000000" fill-rule="evenodd"/>
		<path id="Vector" d="M14 4.96826L8.65399 4.96826L7.00269 0L5.34558 4.96875L0 4.96338L4.32953 8.03711L2.67322 13L7.00269 9.93164L11.3272 13L9.6759 8.03711L14 4.96826Z" fill="#04DA8D" fill-opacity="1.000000" fill-rule="nonzero"/>
		<path id="Vector" d="M10.0472 9.16113L9.6759 8.03711L7.00269 9.93164L10.0472 9.16113Z" fill="#126849" fill-opacity="1.000000" fill-rule="nonzero"/>
	</g>
</svg>
